<svg xmlns="http://www.w3.org/2000/svg" id="Layer_1" data-name="Layer 1" viewBox="581.27 580.39 568.49 567.32">
  <defs>
    <style>
      .cls-1, .cls-2, .cls-3, .cls-4, .cls-5 {
        stroke-width: 0px;
      }

      .cls-2 {
        fill: #618d56;
      }

      .cls-3 {
        fill: #d16128;
      }

      .cls-4 {
        fill: #8aaab9;
      }

      .cls-5 {
        fill: #feb042;
      }
    </style>
  </defs>
  <g>
    <path class="cls-3" d="M865.51,864.48h-279.24c0,68.92,25.53,132.35,67.55,181.27,51.38-59.82,127.43-97.97,211.69-97.97s160.31,38.15,211.69,97.97c42.03-48.93,67.55-112.35,67.55-181.27h0s-279.24,0-279.24,0Z"/>
    <path class="cls-1" d="M865.51,859.48h-279.24c-2.7,0-5.01,2.29-5,5,.21,67.84,25.02,133.29,69.02,184.81,1.67,1.95,5.41,1.93,7.07,0,40.12-46.46,94.67-79.13,154.96-91.26,61.51-12.38,126.58-2.55,181.8,27.18,30.24,16.28,57.11,38.11,79.55,64.09,1.67,1.93,5.41,1.95,7.07,0,43.91-51.41,69.02-117.05,69.02-184.82,0-2.7-2.29-5-5-5-31.62,0-63.23,0-94.85,0-49.97,0-99.94,0-149.92,0-11.49,0-22.98,0-34.48,0-6.43,0-6.45,10,0,10,31.62,0,63.23,0,94.85,0,49.97,0,99.94,0,149.92,0,11.49,0,22.98,0,34.48,0l-5-5c0,65.01-23.92,128.37-66.09,177.75h7.07c-41.29-47.81-98.06-81.69-160.14-93.99-63.75-12.63-130.76-2.69-188.07,27.98-31.19,16.69-59.13,39.26-82.24,66.01h7.07c-42.26-49.48-65.89-112.65-66.09-177.74l-5,5h94.85c49.97,0,99.94,0,149.92,0h34.48c6.43,0,6.45-10,0-10Z"/>
  </g>
  <g>
    <path class="cls-5" d="M865.51,706.07c97.97,0,188.64,22.24,260.88,59.38-40.31-104.92-142.48-180.23-260.88-180.23s-220.56,75.3-260.88,180.23c72.23-37.14,162.91-59.38,260.88-59.38Z"/>
    <path class="cls-1" d="M865.51,711.07c70.8.1,141.81,11.54,208.19,36.5,17.13,6.44,33.87,13.85,50.16,22.19,3.49,1.79,9.04-1.27,7.34-5.65-32.33-83.51-103.16-149.09-189.56-173.41-88.15-24.82-184.1-4.03-254.99,53.55-38.86,31.56-68.78,73.22-86.84,119.86-1.7,4.38,3.83,7.45,7.34,5.65,60.6-31.03,127.73-48.87,195.34-55.59,20.94-2.08,41.97-3.07,63.02-3.1,6.43,0,6.45-10.01,0-10-72.16.1-144.78,11.78-212.36,37.43-17.41,6.61-34.46,14.14-51.03,22.62l7.34,5.65c31.04-80.17,99.76-143.11,182.58-166.43,84.94-23.92,178.18-4.09,246.34,51.87,36.95,30.33,65.92,69.96,83.19,114.56l7.34-5.65c-61.73-31.61-129.75-49.74-198.6-56.77-21.53-2.2-43.16-3.25-64.8-3.29-6.43,0-6.44,9.99,0,10Z"/>
  </g>
  <g>
    <path class="cls-5" d="M905.56,716.99s-51.92,17.1-71.23-32.11c-19.31-49.21-111.38-66.85-162.48-20.9"/>
    <path class="cls-1" d="M904.23,712.17c-8.34,2.72-17.43,3.32-26.19,2.32-7.83-.89-15.47-3.58-21.91-8.15-8.76-6.2-13.75-15.27-17.86-24.92-15.96-37.44-63.92-51.43-101.26-48.79-25.29,1.79-49.62,10.9-68.69,27.81-4.83,4.28,2.27,11.33,7.07,7.07,31.79-28.19,82.2-32.77,120.02-14.44,8.33,4.04,16.11,9.2,22.57,15.85,6.85,7.05,10.09,15.02,14.31,23.68,8.16,16.77,23.36,28.52,41.85,31.37,10.65,1.64,22.42,1.2,32.75-2.16,6.09-1.99,3.48-11.65-2.66-9.64h0Z"/>
  </g>
  <g>
    <path class="cls-5" d="M956.38,719.81l-50.77-7.92s0,0,0,0c4.35-27.85,30.84-47.19,58.69-42.85,27.85,4.35,47.19,30.84,42.85,58.69l-50.77-7.92Z"/>
    <path class="cls-1" d="M957.71,714.99c-16.92-2.64-33.85-5.28-50.77-7.92l3.49,6.15c3.84-24.58,26.94-42.58,51.82-39.45,25.23,3.18,43.65,27.5,40.08,52.63l6.15-3.49c-16.92-2.64-33.85-5.28-50.77-7.92-6.3-.98-9.01,8.65-2.66,9.64,16.92,2.64,33.85,5.28,50.77,7.92,2.39.37,5.74-.59,6.15-3.49,3.33-23.41-7.41-47-28.39-58.61s-46.79-8.28-64.57,7.28c-9.56,8.36-16.26,20.25-18.22,32.82-.38,2.42.59,5.7,3.49,6.15,16.92,2.64,33.85,5.28,50.77,7.92,6.3.98,9.01-8.65,2.66-9.64Z"/>
  </g>
  <g>
    <path class="cls-5" d="M861.83,771.31s-51.92,17.1-71.23-32.11-111.38-66.85-162.48-20.9"/>
    <path class="cls-1" d="M860.5,766.49c-8.34,2.72-17.43,3.32-26.19,2.32-7.83-.89-15.47-3.58-21.91-8.15-8.76-6.2-13.75-15.27-17.86-24.92-15.96-37.44-63.92-51.43-101.26-48.79-25.29,1.79-49.62,10.9-68.69,27.81-4.83,4.28,2.27,11.33,7.07,7.07,31.79-28.19,82.2-32.77,120.02-14.44,8.33,4.04,16.11,9.2,22.57,15.85,6.85,7.05,10.09,15.02,14.31,23.68,8.16,16.77,23.36,28.52,41.85,31.37,10.65,1.64,22.42,1.2,32.75-2.16,6.09-1.99,3.48-11.65-2.66-9.64h0Z"/>
  </g>
  <g>
    <path class="cls-2" d="M865.51,865.47h279.22c0-.64.02-1.26.02-1.89,0-35.27-6.56-69.01-18.49-100.09-72.21-37.1-162.84-59.31-260.75-59.31s-188.54,22.21-260.75,59.31c-11.93,31.07-18.49,64.81-18.49,100.09,0,.63.02,1.26.02,1.89h279.22Z"/>
    <path class="cls-1" d="M865.51,870.47c31.61,0,63.23,0,94.84,0,49.97,0,99.94,0,149.9,0,11.49,0,22.98,0,34.47,0,2.73,0,4.97-2.29,5-5,.34-26.46-3.34-53.17-10.48-78.64-1.69-6.05-3.59-12.04-5.69-17.96-.87-2.46-1.53-5.76-2.98-7.89-1.59-2.34-4.88-3.37-7.31-4.58-10.02-4.98-20.22-9.57-30.55-13.87-44.96-18.7-92.52-30.88-140.72-37.45-99.51-13.57-203.76-4.36-297.98,31.23-11.84,4.47-23.53,9.37-35.01,14.7-5.4,2.51-11.92,4.73-16.77,8.19-2.51,1.79-3.16,5.23-4.17,8-1.22,3.37-2.37,6.76-3.46,10.17-9.04,28.32-13.69,58.38-13.31,88.12.03,2.7,2.26,5,5,5h279.22c6.43,0,6.45-10,0-10h-279.22l5,5c-.44-34.35,6.09-68.58,18.29-100.64l-2.3,2.99c60.84-31.13,128.26-48.98,196.14-55.62,72.32-7.07,146.13-1.99,216.47,16.43,35.87,9.39,70.81,22.29,103.84,39.19l-2.3-2.99c12.2,32.06,18.73,66.29,18.29,100.64l5-5c-31.61,0-63.23,0-94.84,0-49.97,0-99.94,0-149.9,0-11.49,0-22.98,0-34.47,0-6.43,0-6.45,10,0,10Z"/>
  </g>
  <g>
    <path class="cls-4" d="M865.51,948.73c-84.02,0-159.86,37.93-211.24,97.45,51.2,59.17,126.85,96.6,211.24,96.6s160.03-37.43,211.24-96.6c-51.37-59.52-127.22-97.45-211.24-97.45Z"/>
    <path class="cls-1" d="M865.51,943.73c-64.04.19-126.31,22.28-176.41,62.09-13.91,11.05-26.72,23.42-38.36,36.83-1.86,2.15-1.88,4.91,0,7.07,41.37,47.54,98.16,80.82,160.11,92.8,63.53,12.29,130.34,2.61,187.57-27.66,31.02-16.41,58.84-38.68,81.86-65.14,1.87-2.15,1.88-4.91,0-7.07-41.22-47.5-97.72-81.14-159.5-93.44-18.19-3.62-36.72-5.43-55.27-5.48-6.44-.02-6.44,9.98,0,10,61.99.18,122.86,21.6,171.13,60.59,13.23,10.68,25.43,22.56,36.58,35.4v-7.07c-40.01,45.99-94.3,78-154.15,89.92-61.5,12.26-126.73,2.77-182.08-26.71-30.07-16.01-56.81-37.53-79.17-63.22v7.07c40.04-46.14,94.33-78.59,154.32-90.71,17.58-3.55,35.45-5.23,53.38-5.28,6.43-.02,6.45-10.02,0-10Z"/>
  </g>
  <g>
    <path class="cls-5" d="M995.79,687.02s3.71-14.48,17.89-11.69c14.19,2.8,33.27-10.44,26.95-27.68"/>
    <path class="cls-1" d="M1000.61,688.35c.6-2.24,2.27-5.42,4.91-7.08,2.96-1.86,6.01-1.13,9.26-.76,3.48.4,7.07.06,10.46-.84,14.69-3.91,25.23-18.21,20.21-33.36-2.01-6.08-11.67-3.48-9.64,2.66,2.29,6.92.06,13.25-5.82,17.55-6.22,4.54-11.82,3.78-18.93,3.47-9.58-.42-17.68,6.65-20.1,15.69-1.66,6.22,7.98,8.88,9.64,2.66h0Z"/>
  </g>
  <g>
    <path class="cls-5" d="M961.29,667.34s-4.02-14.4,9.67-19.06,23.62-25.66,9.53-37.44"/>
    <path class="cls-1" d="M966.11,666.01c-.62-2.34-.69-5.86.81-8.61,1.64-3.02,4.68-3.9,7.64-5.2,3.27-1.43,6.26-3.55,8.76-6.1,10.59-10.76,12.55-28.22.71-38.79-4.79-4.28-11.88,2.77-7.07,7.07,5.46,4.88,6.7,11.5,3.71,18.19-1.31,2.94-3.29,5.61-5.73,7.7-2.73,2.34-5.9,3.11-9,4.75-8.49,4.48-11.88,14.61-9.46,23.65,1.66,6.21,11.31,3.58,9.64-2.66h0Z"/>
  </g>
  <g>
    <path class="cls-5" d="M933.33,674.22s-21.38-11.5-11.42-32.76c9.95-21.26-5.89-55.68-36.01-55.49"/>
    <path class="cls-1" d="M935.85,669.9c-4.95-2.71-9.45-7.58-10.99-13.12-1.73-6.22,1.04-11.14,3.02-16.84,1.68-4.86,2.25-10.23,1.89-15.34-1.62-23.39-19.88-43.38-43.88-43.63-6.44-.07-6.44,9.93,0,10,21.61.22,38.49,22.83,33.08,43.84-1.44,5.6-4.34,10.31-4.66,16.25-.28,5.09,1.01,10.12,3.49,14.55,2.93,5.22,7.72,10.02,13,12.91,5.65,3.09,10.7-5.54,5.05-8.63h0Z"/>
  </g>
  <g>
    <path class="cls-5" d="M912.93,691.64s-36.19-3.97-34.31-39.13c1.88-35.16-46.41-71.56-88.72-56.7"/>
    <path class="cls-1" d="M912.93,686.64c.26.03,1.31.28-.07-.03-1.15-.26-2.31-.46-3.45-.75-3.38-.87-6.65-2.06-9.73-3.71-9.13-4.9-15.16-13.24-16-23.71-.55-6.81.17-13.25-1.65-19.96-1.71-6.31-4.7-12.36-8.45-17.7-8.5-12.1-20.56-21.45-34.15-27.21-16.12-6.83-34.17-8.21-50.85-2.58-6.07,2.05-3.46,11.71,2.66,9.64,28.46-9.6,62.5,4.29,77.05,30.51,3.03,5.47,5.12,11.61,5.37,17.89s-.23,12.84,1.82,19.24c3.17,9.93,10.35,17.87,19.52,22.69,5.56,2.92,11.69,4.97,17.95,5.68s6.33-9.28,0-10h0Z"/>
  </g>
  <g>
    <path class="cls-5" d="M1009.22,707.02s17.94-11.84,30.34,4.85c12.4,16.69,45.51,21.05,55.45-3.41"/>
    <path class="cls-1" d="M1011.74,711.33c4.77-3.09,11.42-4.59,16.8-2.34s7.62,7.35,11.63,10.9c3.41,3.02,7.25,5.38,11.43,7.16,17.73,7.52,39.66,2.73,47.73-16.06,2.51-5.85-6.1-10.95-8.63-5.05-7.45,17.34-29.53,18.58-43.06,7.22-3.81-3.2-6.25-7.56-10.31-10.52s-8.58-4.49-13.47-4.67c-5.82-.22-12.24,1.55-17.15,4.73-5.38,3.48-.38,12.14,5.05,8.63h0Z"/>
  </g>
  <g>
    <path class="cls-4" d="M978.21,714.27s23.49,36.17-9.17,51.18-44.28,44.4-30.85,61.83,57.6,38.19,57.6,38.19h-262.66c85.42,0,97.98-43.66,99.24-58.73s7.54-38.94,53.51-51.5,52.3-46.9,52.3-46.9l40.02,5.94Z"/>
    <path class="cls-1" d="M973.9,716.8c4.44,6.89,7.58,15.55,7.49,23.79-.08,7.04-3.24,13.14-8.99,17.23-4.19,2.99-9.18,4.74-13.6,7.35s-8.47,5.56-12.25,8.9c-11.99,10.58-21.23,26.6-18.22,43.05,2.83,15.48,17.9,25.43,30.16,33.37,11.11,7.19,22.81,13.65,34.79,19.3l2.52-9.32c-29.67,0-59.34,0-89.01,0-47.07,0-94.15,0-141.22,0-10.81,0-21.61,0-32.42,0v10c38.37-.14,88.28-9.8,101.84-51.63,1.48-4.56,2.04-9.15,2.57-13.88.8-7.01,3.26-14.24,7.51-20.22,16.48-23.2,48.25-22.2,70.19-37.31,12.44-8.57,24.85-22.36,27.77-37.78l-6.15,3.49c13.34,1.98,26.68,3.96,40.02,5.94,6.3.94,9.01-8.7,2.66-9.64-13.34-1.98-26.68-3.96-40.02-5.94-2.5-.37-5.6.59-6.15,3.49-2.16,11.4-10.8,22.18-19.97,29.45-11.61,9.2-25.12,12.22-38.76,17.05-11.8,4.18-23.43,10.03-32.3,19.05-6.04,6.14-10.53,13.67-12.89,21.96-.97,3.41-1.52,6.93-1.91,10.45-.11,1.03-.18,2.07-.3,3.1-.08.72.16-.91-.07.49-.09.53-.18,1.06-.28,1.58-2.2,11.4-8.32,21.33-17.3,29.15-20.45,17.81-50.5,21.1-76.46,21.19-6.43.02-6.45,10,0,10,29.67,0,59.34,0,89.01,0,47.07,0,94.15,0,141.22,0,10.81,0,21.61,0,32.42,0,4.69,0,7.17-7.13,2.52-9.32-9.74-4.59-19.25-9.77-28.46-15.35-7.05-4.27-14.07-8.78-20.34-14.15-5.17-4.43-9.97-9.34-11.36-16.24-3.27-16.19,9.99-31.38,22.47-39.6,7.97-5.25,17.48-8,23.76-15.55,4.43-5.34,6.71-11.85,6.99-18.75.41-10.17-3.34-21.23-8.83-29.76-3.47-5.39-12.13-.38-8.63,5.05Z"/>
  </g>
  <g>
    <path class="cls-2" d="M763.69,714.27s-74.5,49.58-80.11,151.2"/>
    <path class="cls-1" d="M761.17,709.95c-9.84,6.57-18.66,15.1-26.67,23.73-19.04,20.53-33.95,44.73-43.6,71.02-7.16,19.51-11.1,40.04-12.33,60.77-.38,6.43,9.62,6.41,10,0,3.17-53.79,28.05-105.28,69.19-140.29,3.65-3.11,4.79-4.14,8.45-6.59,5.33-3.56.32-12.22-5.05-8.63h0Z"/>
  </g>
  <g>
    <path class="cls-2" d="M718.77,721.54s-60.1,57.1-58.43,143.94"/>
    <path class="cls-1" d="M715.24,718c-7.91,7.54-14.71,16.52-20.97,25.44-14.44,20.57-25.6,43.69-32.17,67.98-4.76,17.6-7.03,35.83-6.75,54.06.1,6.43,10.1,6.45,10,0-.72-48.36,18.15-96.17,49.72-132.61,2.32-2.67,4.68-5.34,7.24-7.79,4.67-4.45-2.41-11.51-7.07-7.07h0Z"/>
  </g>
  <g>
    <path class="cls-2" d="M683.58,731.36s-42.1,35.85-44.4,134.11"/>
    <path class="cls-1" d="M680.04,727.82c-6.09,5.22-10.96,12.37-15.21,19.07-11.89,18.72-19.48,40.16-24.17,61.74-4.06,18.67-5.98,37.76-6.48,56.84-.17,6.44,9.83,6.43,10,0,1.1-42.51,9.62-92.37,37.81-125.22,1.6-1.86,3.26-3.75,5.13-5.36,4.9-4.19-2.21-11.24-7.07-7.07h0Z"/>
  </g>
  <g>
    <path class="cls-2" d="M649.45,743.38s-30.17,41.73-28.64,121.09"/>
    <path class="cls-1" d="M645.14,740.86c-4.22,5.87-7.4,12.65-10.29,19.24-7.89,17.97-13.06,37.02-15.96,56.41-2.38,15.89-3.34,31.91-3.08,47.96.1,6.43,10.1,6.45,10,0-.49-30.16,3.28-60.51,13.57-88.98,3.66-10.14,8.05-20.77,14.39-29.59,3.76-5.23-4.91-10.23-8.63-5.05h0Z"/>
  </g>
  <g>
    <path class="cls-2" d="M620.75,755.67s-23.87,62.35-16.11,108.8"/>
    <path class="cls-1" d="M615.93,754.34c-4.73,12.4-8.3,25.34-11.26,38.26-5.47,23.86-8.74,48.85-4.85,73.2,1.01,6.34,10.65,3.65,9.64-2.66-3.72-23.32.04-47.67,5.45-70.42,2.87-12.05,6.25-24.13,10.67-35.72,2.3-6.02-7.37-8.62-9.64-2.66h0Z"/>
  </g>
  <g>
    <path class="cls-2" d="M733.13,742.7s86.69-26.89,192.76-11.34"/>
    <path class="cls-1" d="M734.46,747.52c11.31-3.5,23.05-5.86,34.68-8,29.35-5.39,59.23-8.01,89.07-8.01,22.19,0,44.38,1.49,66.34,4.66,6.29.91,9.01-8.73,2.66-9.64-60.56-8.74-123.54-6.32-183.1,8.07-4.13,1-8.26,2.02-12.32,3.27-6.13,1.89-3.51,11.55,2.66,9.64h0Z"/>
  </g>
  <g>
    <path class="cls-2" d="M718.77,761.37s135.29-25.58,177.32-9.51"/>
    <path class="cls-1" d="M720.1,766.19c15.73-2.97,31.58-5.39,47.43-7.58,29.49-4.07,59.42-7.4,89.23-7.03,12.65.16,26.02.63,38,5.1,6.04,2.26,8.64-7.41,2.66-9.64-10.87-4.06-23-4.9-34.49-5.32-15.11-.54-30.26.2-45.32,1.37-27.68,2.15-55.25,5.88-82.63,10.4-5.85.96-11.71,1.95-17.54,3.05-6.32,1.19-3.64,10.83,2.66,9.64h0Z"/>
  </g>
  <g>
    <path class="cls-2" d="M707.28,780.3s113.25-16.42,144.13-9.13"/>
    <path class="cls-1" d="M708.61,785.12c36.4-5.27,74.57-9.89,111.88-10.73,9.74-.22,20.03-.58,29.6,1.6,6.27,1.43,8.94-8.21,2.66-9.64-8.73-1.99-17.91-2.09-26.82-2.04-12.19.07-24.38.82-36.53,1.76-22.72,1.77-45.39,4.34-67.98,7.3-5.15.68-10.31,1.36-15.45,2.1-6.34.92-3.65,10.56,2.66,9.64h0Z"/>
  </g>
  <g>
    <path class="cls-2" d="M698.7,798.41s102.35-14.11,137.71-8.54"/>
    <path class="cls-1" d="M700.03,803.24c.2-.03.41-.06.61-.08,1.13-.15-1.08.14-.18.02.44-.06.88-.12,1.32-.18,2.61-.34,5.23-.68,7.84-1.01,8.59-1.08,17.18-2.08,25.78-3.02,22.84-2.48,45.78-4.61,68.75-5.25,10.23-.29,20.77-.57,30.92.97,6.3.96,9.01-8.68,2.66-9.64-20.58-3.13-42.05-1.29-62.69.24s-42.3,3.83-63.37,6.44c-4.78.59-9.55,1.2-14.32,1.86-6.35.87-3.65,10.51,2.66,9.64h0Z"/>
  </g>
  <g>
    <path class="cls-2" d="M689.54,826.06s76.71-20.77,142.42-15.99"/>
    <path class="cls-1" d="M690.87,830.88c15.08-4.07,30.5-7.07,45.89-9.67,31.35-5.3,63.41-8.34,95.2-6.13,6.42.45,6.39-9.56,0-10-32.22-2.24-64.7.97-96.49,6.26-15.85,2.64-31.74,5.71-47.26,9.9-6.21,1.68-3.57,11.32,2.66,9.64h0Z"/>
  </g>
  <g>
    <path class="cls-2" d="M685.29,847.86s98.45-25.37,138.43-17.05"/>
    <path class="cls-1" d="M686.62,852.68c33.57-8.63,68.32-15.75,102.93-18.04,10.85-.72,22.11-1.17,32.83.99,6.28,1.26,8.97-8.38,2.66-9.64-21.31-4.28-44.12-1.1-65.39,1.93s-42.07,7.19-62.84,12.01c-4.3,1-8.59,2.01-12.86,3.11-6.23,1.6-3.59,11.25,2.66,9.64h0Z"/>
  </g>
  <g>
    <path class="cls-2" d="M806.55,847.86s-51.47.27-82.92,17.61"/>
    <path class="cls-1" d="M806.55,842.86c-10.35.07-20.75,1.09-30.99,2.48-18.73,2.53-37.7,6.76-54.45,15.81-5.66,3.06-.62,11.7,5.05,8.63,15.87-8.58,34.2-12.48,51.95-14.78,9.4-1.22,18.95-2.08,28.44-2.14,6.43-.04,6.45-10.04,0-10h0Z"/>
  </g>
  <g>
    <path class="cls-2" d="M986.38,739.53s7.33-9.81,44.84-13"/>
    <path class="cls-1" d="M990.7,742.05c-2.26,2.95-.41.46-.32.51.06.03,1.6-1.28.6-.56,1.86-1.35,3.93-2.45,6.04-3.36,10.63-4.62,22.79-6.1,34.21-7.12,6.36-.57,6.42-10.57,0-10-13.19,1.18-26.81,2.95-39.01,8.38-3.78,1.68-7.59,3.77-10.15,7.1-3.92,5.1,4.77,10.09,8.63,5.05h0Z"/>
  </g>
  <g>
    <path class="cls-2" d="M961.62,769.3s50.6-31.07,109.9-29.74"/>
    <path class="cls-1" d="M964.15,773.62c9.88-6.04,20.73-10.77,31.52-14.86,24.23-9.18,49.87-14.64,75.86-14.19,6.44.11,6.44-9.89,0-10-26.81-.46-53.5,5.07-78.51,14.55-11.59,4.39-23.3,9.39-33.91,15.87-5.48,3.35-.46,12,5.05,8.63h0Z"/>
  </g>
  <g>
    <path class="cls-2" d="M935.09,798.41s81.46-41.23,172.47-44"/>
    <path class="cls-1" d="M937.61,802.73c34.76-17.55,73.62-29.22,111.7-36.61,19.22-3.73,38.67-6.05,58.25-6.71,6.42-.21,6.45-10.21,0-10-56.24,1.87-112.23,16.78-163.6,39.4-3.83,1.69-7.66,3.4-11.39,5.28-5.75,2.9-.69,11.53,5.05,8.63h0Z"/>
  </g>
  <g>
    <path class="cls-2" d="M938.19,827.27s81.34-47.88,191.93-53.08"/>
    <path class="cls-1" d="M940.72,831.59c10.67-6.27,22.12-11.42,33.48-16.25,28.3-12.03,57.9-21.18,87.99-27.45,22.39-4.66,45.08-7.58,67.93-8.71,6.41-.32,6.44-10.32,0-10-63.03,3.1-126.3,19.33-182.81,47.59-3.92,1.96-7.85,3.96-11.64,6.18-5.55,3.26-.52,11.9,5.05,8.63h0Z"/>
  </g>
  <g>
    <path class="cls-2" d="M961.62,846.57s65.25-44.34,175.47-48.15"/>
    <path class="cls-1" d="M964.15,850.88c8.7-5.89,18.4-10.56,27.93-14.9,25.29-11.54,52.19-19.65,79.42-25.06,21.63-4.3,43.56-6.69,65.6-7.5,6.42-.24,6.45-10.24,0-10-57.82,2.12-117.45,14.91-168.44,43.14-3.23,1.79-6.48,3.62-9.55,5.7-5.3,3.59-.3,12.26,5.05,8.63h0Z"/>
  </g>
  <g>
    <path class="cls-2" d="M987.32,861.25s44.88-32.84,153.67-43.55"/>
    <path class="cls-1" d="M989.85,865.57c6.44-4.69,13.94-8.21,21.15-11.51,21.66-9.92,44.84-16.62,68.06-21.71,20.43-4.48,41.13-7.56,61.94-9.64,6.34-.63,6.41-10.64,0-10-33.94,3.39-67.81,9.18-100.37,19.48-16.81,5.32-33.6,11.74-48.96,20.49-2.33,1.33-4.69,2.68-6.86,4.26-5.15,3.75-.17,12.43,5.05,8.63h0Z"/>
  </g>
  <g>
    <path class="cls-2" d="M1031.22,865.47s48.16-25.21,113.53-26.97"/>
    <path class="cls-1" d="M1033.75,869.79c9.85-5.13,20.52-8.92,31.06-12.32,25.87-8.35,52.78-13.14,79.95-13.97,6.42-.2,6.45-10.2,0-10-28.03.85-55.93,5.72-82.61,14.33-11.34,3.66-22.85,7.8-33.45,13.33-5.71,2.98-.66,11.61,5.05,8.63h0Z"/>
  </g>
  <g>
    <path class="cls-2" d="M1098.6,864.47s20.43-10.18,46.15-7.81"/>
    <path class="cls-1" d="M1101.13,868.79c12.6-6.2,29.22-8.29,43.63-7.12,6.41.52,6.38-9.48,0-10-16.24-1.32-33.93,1.23-48.68,8.49-5.77,2.84-.71,11.47,5.05,8.63h0Z"/>
  </g>
  <g>
    <path class="cls-1" d="M662.85,971.42c.9-.76,1.65-.79,2.24-.08,1.32,1.58,1.97,2.37,3.29,3.95.56.67.44,1.42-.44,2.17-4.25,3.59-6.35,5.44-10.47,9.26-.81.75-.96,1.52-.34,2.19.4.43.6.64,1,1.07.6.64,1.4.57,2.2-.16,2.61-2.41,3.92-3.59,6.58-5.91.86-.75,1.59-.77,2.19-.08,1.34,1.56,2.01,2.34,3.35,3.9.57.66.48,1.4-.36,2.13-2.59,2.26-3.87,3.41-6.41,5.76-.78.72-.91,1.48-.29,2.15.4.43.6.64,1,1.07.6.64,1.38.59,2.15-.12,3.91-3.61,5.89-5.37,9.92-8.77.83-.7,1.54-.7,2.13,0,1.32,1.58,1.97,2.37,3.29,3.95.59.71.47,1.4-.33,2.08-6.8,5.74-10.11,8.77-16.55,15.13-.73.72-1.5.78-2.12.17-6.92-6.92-13.85-13.85-20.77-20.77-.65-.65-.51-1.44.3-2.24,7.17-7.09,10.86-10.46,18.43-16.85Z"/>
    <path class="cls-1" d="M689.6,965.03c-.81.8-1.5.78-2.17.15-1.39-1.3-3.64-1.16-5.79.44-1.78,1.33-2.22,3.01-1.4,3.71,2.8,2.36,17.07-7.97,22.96.79.77,1.14,3.71,8.63-6.21,16.06-8.79,6.58-14.57,3.38-17.03.79-.57-.6-.51-1.31.14-2.07,1.63-1.93,2.45-2.88,4.12-4.77.75-.82,1.49-.86,2.16-.17,1.52,1.59,3.88,1.41,5.9-.11,2.11-1.58,2.9-3.78,1.91-4.6-3.12-2.56-15.66,7.98-22.37.12-.88-1.03-5.37-8.23,5.12-16.08,9.65-7.22,15.58-3.48,17.63-.94.51.63.37,1.35-.36,2.08-1.85,1.82-2.77,2.74-4.58,4.6Z"/>
    <path class="cls-1" d="M715.86,935.23c1.01-.54,1.73-.41,2.16.4.97,1.81,1.45,2.72,2.42,4.54.41.77.16,1.48-.82,2.01-4.74,2.57-7.09,3.91-11.74,6.7-.91.55-1.2,1.26-.72,2.05.3.5.46.75.76,1.26.45.75,1.23.86,2.13.32,2.94-1.76,4.42-2.62,7.39-4.29.96-.54,1.66-.4,2.11.4,1,1.8,1.5,2.7,2.49,4.5.42.76.2,1.46-.74,1.99-2.9,1.63-4.34,2.47-7.2,4.18-.88.53-1.14,1.23-.67,2.01.3.5.46.75.76,1.26.45.75,1.21.87,2.08.35,4.4-2.64,6.63-3.91,11.12-6.34.93-.5,1.61-.34,2.04.47.97,1.81,1.45,2.72,2.42,4.54.43.81.2,1.46-.71,1.94-7.58,4.1-11.31,6.31-18.63,11.04-.83.53-1.58.42-2.06-.31-5.35-8.2-10.7-16.4-16.05-24.61-.5-.77-.22-1.5.7-2.1,8.15-5.26,12.3-7.72,20.75-12.29Z"/>
    <path class="cls-1" d="M757.83,949.13c.38.93.12,1.64-.82,2.02-2.1.87-3.15,1.32-5.23,2.24-.88.39-1.58.2-1.96-.64-.65-1.46-.98-2.19-1.63-3.65-.37-.84-1.04-1.05-1.99-.62-1.63.74-2.45,1.12-4.07,1.88-.9.42-1.22,1.09-.82,1.91.69,1.44,1.03,2.16,1.72,3.6.4.83.13,1.46-.79,1.91-2.06,1-3.08,1.51-5.12,2.55-.87.44-1.62.21-2.08-.68-3.58-6.92-5.37-10.37-8.94-17.29-2.66-5.14-4.56-11.37,7.07-16.75,11.62-5.37,15.09.14,17.28,5.49,2.95,7.2,4.43,10.81,7.38,18.01ZM741.82,934.81c-.9-2.01-1.71-2.88-5.02-1.35-3.32,1.53-3.18,2.71-2.23,4.7.86,1.81,1.3,2.71,2.16,4.51.38.79,1.13.99,2.05.55,1.67-.79,2.51-1.17,4.18-1.93.96-.48,1.26-1.12.89-1.96-.81-1.81-1.21-2.72-2.02-4.53Z"/>
    <path class="cls-1" d="M798.66,926.93c.69,2.95,1.81,10.77-9.64,13.99s-14.62-4.02-15.57-6.9c-1.44-4.36-2.17-6.54-3.61-10.89-.95-2.88-2.82-11.11,10-14.72s15.51,4.4,16.2,7.35c1.05,4.47,1.57,6.7,2.62,11.17ZM787.63,920.36c-.91-3.41-1.74-5.45-5.64-4.36-3.9,1.1-3.55,3.27-2.54,6.66.75,2.53,1.13,3.8,1.89,6.33,1.01,3.39,1.87,5.36,5.54,4.32,3.68-1.03,3.37-3.16,2.46-6.57-.68-2.55-1.02-3.83-1.71-6.39Z"/>
    <path class="cls-1" d="M806.03,903.08c1.1-.21,1.73.14,1.9,1.04,1.32,7.08,1.99,10.61,3.31,17.69.65,3.47,1.3,5.52,5.04,4.88,3.75-.64,3.67-2.79,3.11-6.28-1.12-7.11-1.69-10.66-2.81-17.77-.14-.91.39-1.46,1.44-1.62,2.47-.38,3.71-.55,6.18-.88,1.11-.15,1.72.24,1.83,1.15,1.03,8.11,1.54,12.16,2.57,20.26.38,3,.68,10.91-10.99,12.91-11.67,2-14.06-5.54-14.71-8.5-1.75-7.98-2.62-11.97-4.37-19.95-.2-.9.31-1.48,1.35-1.7,2.45-.52,3.68-.77,6.13-1.24Z"/>
    <path class="cls-1" d="M840.7,907.71c-.07-.92-.65-1.33-1.74-1.24-3.03.26-4.54.41-7.57.75-1.03.11-1.68-.32-1.78-1.18-.24-2.04-.36-3.06-.6-5.11-.11-.91.45-1.44,1.5-1.56,9.39-1.09,18.99-1.72,28.44-1.87,1.11-.02,1.68.43,1.69,1.35.03,2.06.05,3.08.08,5.14.01.87-.52,1.38-1.61,1.41-3.04.06-4.56.11-7.59.25-1.03.05-1.6.54-1.56,1.45.44,8.58.66,12.87,1.09,21.45.04.87-.43,1.4-1.43,1.45-2.24.12-3.35.2-5.59.37-.95.07-1.54-.39-1.61-1.25-.7-8.56-1.05-12.84-1.75-21.41Z"/>
    <path class="cls-1" d="M878.05,897.68c10.46.41,13.6,4.33,12.97,11.83-.34,4.01-.51,6.01-.84,10.02-.63,7.5-4.01,10.62-13.41,10.25-4.46-.18-6.69-.22-11.14-.22-.95,0-1.5-.5-1.51-1.37-.05-9.78-.1-19.55-.14-29.33,0-.92.55-1.38,1.66-1.43,4.97,0,7.45.05,12.41.25ZM877.24,921.9c2.46.1,3.72-.19,3.86-2.94,0-.05.53-10.04.54-10.08.15-2.84-1.14-3.19-3.74-3.3-1.17-.05-1.76-.07-2.93-.1-1.03-.03-1.64.41-1.66,1.33-.14,5.43-.21,8.15-.35,13.58-.02.87.53,1.39,1.51,1.42,1.11.03,1.66.05,2.77.1Z"/>
    <path class="cls-1" d="M920.02,924.32c-.56,2.98-2.73,10.58-14.45,8.91-11.71-1.67-11.64-9.58-11.34-12.6.45-4.57.68-6.85,1.13-11.42.3-3.01,1.9-11.3,15.02-9.42,13.12,1.88,12.34,10.28,11.78,13.25-.85,4.51-1.28,6.76-2.14,11.27ZM912.63,913.87c.55-3.49.62-5.69-3.37-6.26-3.99-.57-4.54,1.56-5,5.06-.34,2.62-.51,3.93-.85,6.55-.45,3.5-.47,5.65,3.29,6.19,3.76.54,4.35-1.53,4.9-5.02.41-2.61.62-3.92,1.03-6.53Z"/>
    <path class="cls-1" d="M949.47,931.47c-.87,2.9-3.82,10.24-15.35,7.35-11.52-2.88-10.63-10.74-10.02-13.71.92-4.5,1.38-6.75,2.3-11.24.61-2.97,3.05-11.05,15.96-7.82,12.91,3.23,11.27,11.51,10.41,14.42-1.32,4.4-1.97,6.6-3.29,10.99ZM943.16,920.3c.91-3.42,1.2-5.6-2.72-6.58-3.93-.98-4.7,1.08-5.51,4.52-.61,2.57-.91,3.86-1.52,6.43-.81,3.44-1.05,5.57,2.65,6.5,3.7.93,4.5-1.07,5.41-4.48.68-2.56,1.02-3.83,1.7-6.39Z"/>
    <path class="cls-1" d="M976.83,949.65c.19,1.38-1.06,2.24-2.51,1.63-2.14-.89-3.21-1.33-5.36-2.17-.47-.19-.81-.56-.85-1.02-.63-4.2-.98-6.31-1.76-10.52-.05-.17-.17-.31-.31-.36-.79-.29-1.18-.43-1.97-.71-.89-.32-1.73.02-2,.8-.96,2.74-1.44,4.11-2.41,6.84-.27.78-1.09,1.12-1.95.83-2.14-.74-3.21-1.1-5.37-1.79-.86-.28-1.31-1.04-1.06-1.83,2.95-9.31,5.9-18.61,8.85-27.92.25-.79,1.13-1.14,2.09-.83,4.69,1.51,7.02,2.31,11.65,4.01,9.42,3.45,11.79,8.37,8.89,15.31-1.65,3.94-3.94,6.2-7.2,6.77-.25.05-.38.24-.37.49.73,4.19,1.06,6.28,1.64,10.46ZM968.82,923.18c-.93-.33-1.8,0-2.08.77-.45,1.28-.68,1.92-1.13,3.2-.27.78.19,1.57,1.1,1.9,1.03.37,1.55.56,2.58.93,2.43.89,3.73,1.1,4.75-1.55,1.02-2.66-.11-3.4-2.59-4.3-1.05-.39-1.58-.58-2.63-.95Z"/>
    <path class="cls-1" d="M1003.79,942.1c-1.06-.34-1.35-.96-1.1-1.85.52-1.83-.6-3.75-2.95-4.89-1.95-.95-3.61-.55-3.86.49-.83,3.57,14.58,11.35,9.51,20.61-.66,1.21-6,7.26-16.86,1.99-9.62-4.67-9.29-11.23-8.11-14.6.27-.78.91-1.06,1.86-.85,2.37.53,3.56.81,5.93,1.39,1.04.28,1.4.91,1.09,1.82-.72,2.08.47,4.06,2.68,5.14,2.31,1.12,4.59.79,4.87-.46.86-3.94-13.81-10.04-9.89-19.62.51-1.25,4.75-8.58,16.23-3.01,10.56,5.13,10,12.12,8.68,15.11-.33.75-1.03.96-1.99.65-2.44-.79-3.66-1.17-6.09-1.91Z"/>
    <path class="cls-1" d="M1041.53,951.23c.96.65,1.18,1.36.66,2.12-4.06,5.94-6.09,8.91-10.15,14.86-1.99,2.92-2.98,4.83.25,7.11,3.23,2.28,4.7.72,6.78-2.14,4.23-5.82,6.35-8.73,10.58-14.55.54-.74,1.33-.74,2.22-.08,2.1,1.55,3.15,2.34,5.22,3.94.93.71,1.11,1.44.54,2.16-5.01,6.45-7.52,9.68-12.53,16.13-1.86,2.39-7.3,8.11-17.37,1-10.07-7.11-6.42-14.11-4.79-16.66,4.39-6.89,6.59-10.33,10.99-17.22.49-.77,1.28-.82,2.2-.22,2.17,1.41,3.25,2.12,5.4,3.57Z"/>
    <path class="cls-1" d="M1066.09,1010.84c-.11,1.19-.97,1.36-1.89.45-2.3-2.27-3.46-3.39-5.8-5.59-.62-.59-.87-1.19-.79-1.99.41-4.37.58-6.57.84-10.99.02-.35-.23-.57-.58-.51-1.35.18-2.03.27-3.38.47-.24.03-.4.14-.55.31-1.33,1.54-1.99,2.32-3.32,3.86-.57.66-1.3.7-2.11,0-1.84-1.57-2.77-2.34-4.63-3.86-.78-.63-.91-1.39-.37-2.07,6.14-7.63,12.29-15.25,18.43-22.88.58-.71,1.37-.67,2.23.04,2.08,1.7,3.11,2.56,5.16,4.3.9.77,1.05,1.5.45,2.2-2.41,2.8-3.61,4.2-6.02,6.99-.3.35-.06.68.4.59,5.3-.65,7.99-.92,13.41-1.32.8-.08,1.47.16,2.16.81,2.58,2.4,3.86,3.63,6.39,6.12,1.07,1.05.89,1.91-.38,2.01-7.02.23-10.48.45-17.31,1.11-.28.05-.45.15-.43.47-.52,7.87-.91,11.77-1.9,19.46Z"/>
  </g>
</svg>